<svg id="Слой_1" data-name="Слой 1" xmlns="http://www.w3.org/2000/svg" viewBox="0 0 32 17.65"><defs><style>.cls-1{fill:#00009b;}.cls-2{fill:#0af;}</style></defs><path class="cls-1" d="M18.65,10.24h0l-3.51,7.55-1.68,3.6a5.92,5.92,0,0,1-7.87,2.86l5.2-11.15A5.91,5.91,0,0,1,18.65,10.24Z" transform="translate(0 -7.17)"/><path class="cls-2" d="M7.53,10.91A3.91,3.91,0,0,0,4,8.63,3.9,3.9,0,0,0,.37,10.91a4,4,0,0,0,0,3.33L4,21.92l3.58-7.68a3.93,3.93,0,0,0,0-3.33ZM4,14.57a2,2,0,0,1,0-4,2,2,0,0,1,0,4Z" transform="translate(0 -7.17)"/><path class="cls-1" d="M32,14.23,29.35,13l-4,8.56a5.83,5.83,0,0,1-7.79,2.7h0l3.51-7.54L24,10.49,21.34,9.25,28.8,7.17Z" transform="translate(0 -7.17)"/><polygon class="cls-2" points="21.08 9.54 17.57 17.08 15.13 10.62 18.65 3.06 21.08 9.54"/></svg>