<svg id="Слой_1" data-name="Слой 1" xmlns="http://www.w3.org/2000/svg" viewBox="0 0 32 32"><defs><style>.cls-1{fill:#00009b;}.cls-2{fill:#fff;}.cls-3{fill:#0af;}</style></defs><rect class="cls-1" width="32" height="32" rx="5.35"/><path class="cls-2" d="M18.72,11.59h0L16,17.37l-1.29,2.76a4.54,4.54,0,0,1-6,2.19l4-8.54A4.54,4.54,0,0,1,18.72,11.59Z"/><path class="cls-3" d="M10.21,12.1a3,3,0,0,0-5.49,0,3.09,3.09,0,0,0,0,2.56l2.75,5.87,2.74-5.87a3.07,3.07,0,0,0,0-2.56ZM7.47,14.91A1.53,1.53,0,1,1,9,13.38H9a1.52,1.52,0,0,1-1.51,1.53Z"/><path class="cls-2" d="M28.94,14.64l-2-.94-3.05,6.55a4.48,4.48,0,0,1-6,2.08h0l2.69-5.77,2.22-4.77-2-.95,5.64-1.59Z"/><polygon class="cls-3" points="20.59 16.55 17.89 22.32 16.02 17.37 18.72 11.59 20.59 16.55"/></svg>