<svg id="Слой_1" data-name="Слой 1" xmlns="http://www.w3.org/2000/svg" viewBox="0 0 32 17.68"><defs><style>.cls-1{fill:#fff;}.cls-2{fill:#0af;}</style></defs><path class="cls-1" d="M18.65,10.23h0L15.1,17.78l-1.69,3.61a5.93,5.93,0,0,1-7.84,2.86L10.8,13.09A5.94,5.94,0,0,1,18.65,10.23Z" transform="translate(0 -7.18)"/><path class="cls-2" d="M7.53,10.9a3.92,3.92,0,0,0-7.17,0,4.05,4.05,0,0,0,0,3.34L4,21.91l3.58-7.67A4,4,0,0,0,7.53,10.9ZM4,14.57a2,2,0,1,1,2-2H6a2,2,0,0,1-2,2H4Z" transform="translate(0 -7.18)"/><path class="cls-1" d="M32,14.22,29.39,13l-4,8.56a5.85,5.85,0,0,1-7.81,2.73l0,0h0l3.51-7.53L24,10.5,21.37,9.25l7.36-2.07Z" transform="translate(0 -7.18)"/><polygon class="cls-2" points="21.09 9.54 17.57 17.07 15.12 10.61 18.65 3.06 21.09 9.54"/></svg>