<svg id="Слой_1" data-name="Слой 1" xmlns="http://www.w3.org/2000/svg" xmlns:xlink="http://www.w3.org/1999/xlink" viewBox="0 0 202.55 180.12"><defs><style>.cls-1{fill:url(#Безымянный_градиент_101);}.cls-2{fill:url(#Безымянный_градиент_106);}.cls-3{fill:url(#Безымянный_градиент_101-2);}.cls-4{fill:url(#Безымянный_градиент_106-2);}.cls-5{fill:#00009b;}</style><linearGradient id="Безымянный_градиент_101" x1="87.87" y1="13.91" x2="87.87" y2="94.28" gradientUnits="userSpaceOnUse"><stop offset="0" stop-color="#009eff"/><stop offset="1" stop-color="#00b4ff"/></linearGradient><linearGradient id="Безымянный_градиент_106" x1="43.54" y1="7.46" x2="43.54" y2="77.67" gradientUnits="userSpaceOnUse"><stop offset="0" stop-color="#000082"/><stop offset="1" stop-color="#00a"/></linearGradient><linearGradient id="Безымянный_градиент_101-2" x1="156.67" y1="13.91" x2="156.67" y2="94.28" xlink:href="#Безымянный_градиент_101"/><linearGradient id="Безымянный_градиент_106-2" x1="120.4" y1="16.75" x2="120.4" y2="92.5" xlink:href="#Безымянный_градиент_106"/></defs><path class="cls-1" d="M123.35,16.63v0l-19.11,41L95.12,77.27A32.15,32.15,0,0,1,52.38,92.82L80.61,32.19A32.16,32.16,0,0,1,123.35,16.63Z" transform="translate(0)"/><path class="cls-2" d="M63,20.26a21.45,21.45,0,0,0-38.87,0,21.42,21.42,0,0,0,0,18.12L43.54,80.06,63,38.38a21.42,21.42,0,0,0,0-18.12ZM43.54,40.18a10.86,10.86,0,1,1,10.6-10.86A10.73,10.73,0,0,1,43.54,40.18Z" transform="translate(0)"/><path class="cls-3" d="M195.86,38.29l-14.37-6.71L159.82,78c-7.28,15.62-26.24,22.2-42.34,14.7l0,0,19.07-40.9L152.33,18,138,11.29,178.47,0Z" transform="translate(0)"/><polygon class="cls-4" points="136.57 51.8 117.48 92.74 104.23 57.64 123.36 16.63 136.57 51.8"/><path class="cls-5" d="M70,172.74v3.09H61.8v-14H65v10.94Z" transform="translate(0)"/><path class="cls-5" d="M70.72,170.82A5.31,5.31,0,1,1,76,176.11,5.25,5.25,0,0,1,70.72,170.82Zm7.62,0A2.31,2.31,0,1,0,76,173.18,2.25,2.25,0,0,0,78.34,170.82Z" transform="translate(0)"/><path class="cls-5" d="M93.33,165.81v9.52c0,3.36-2.62,4.79-5.29,4.79a5.12,5.12,0,0,1-4.75-2.43l2.57-1.48a2.29,2.29,0,0,0,2.28,1.26,2,2,0,0,0,2.27-2.14v-.92a3.57,3.57,0,0,1-2.93,1.3,5.09,5.09,0,0,1,0-10.18,3.57,3.57,0,0,1,2.93,1.3v-1Zm-2.92,4.81A2.43,2.43,0,1,0,88,172.94,2.27,2.27,0,0,0,90.41,170.62Z" transform="translate(0)"/><path class="cls-5" d="M95.24,163.12a1.81,1.81,0,1,1,1.8,1.8A1.82,1.82,0,0,1,95.24,163.12Zm.3,2.69h3v10h-3Z" transform="translate(0)"/><path class="cls-5" d="M108.43,172.82c0,2.31-2,3.29-4.17,3.29a4.39,4.39,0,0,1-4.31-2.39l2.61-1.48a1.64,1.64,0,0,0,1.7,1.18c.72,0,1.08-.22,1.08-.62,0-1.1-4.93-.52-4.93-4,0-2.18,1.85-3.28,3.93-3.28a4.39,4.39,0,0,1,3.91,2.14l-2.57,1.38a1.45,1.45,0,0,0-1.34-.88c-.52,0-.84.2-.84.56C103.5,169.87,108.43,169.11,108.43,172.82Z" transform="translate(0)"/><path class="cls-5" d="M113.44,168.69v3.55c0,.86.74.94,2.07.86v2.73c-3.93.4-5.07-.78-5.07-3.59v-3.55h-1.61v-2.88h1.61V163.9l3-.9v2.81h2.07v2.88Z" transform="translate(0)"/><path class="cls-5" d="M116.91,163.12a1.81,1.81,0,1,1,1.81,1.8A1.82,1.82,0,0,1,116.91,163.12Zm.3,2.69h3v10h-3Z" transform="translate(0)"/><path class="cls-5" d="M121.92,170.82a5.31,5.31,0,0,1,9.85-2.73l-2.63,1.52a2.07,2.07,0,0,0-1.94-1.12,2.33,2.33,0,0,0,0,4.65,2.05,2.05,0,0,0,1.94-1.12l2.63,1.5a5.12,5.12,0,0,1-4.53,2.59A5.2,5.2,0,0,1,121.92,170.82Z" transform="translate(0)"/><path class="cls-5" d="M140.75,172.82c0,2.31-2,3.29-4.17,3.29a4.39,4.39,0,0,1-4.31-2.39l2.61-1.48a1.64,1.64,0,0,0,1.7,1.18c.72,0,1.08-.22,1.08-.62,0-1.1-4.93-.52-4.93-4,0-2.18,1.85-3.28,3.93-3.28a4.39,4.39,0,0,1,3.91,2.14L138,169.05a1.45,1.45,0,0,0-1.34-.88c-.52,0-.84.2-.84.56C135.82,169.87,140.75,169.11,140.75,172.82Z" transform="translate(0)"/><path class="cls-5" d="M22,124.77v28H17.21L6.41,137.58V152.8H0v-28H4.8L15.61,140V124.77Z" transform="translate(0)"/><path class="cls-5" d="M25.62,142.79a10.61,10.61,0,1,1,10.61,10.57A10.49,10.49,0,0,1,25.62,142.79Zm15.21,0a4.61,4.61,0,1,0-4.6,4.72A4.49,4.49,0,0,0,40.83,142.79Z" transform="translate(0)"/><path class="cls-5" d="M62.25,132.38v6.81c-2.49-.4-6,.6-6,4.56v9.05h-6v-20h6v3.56C57,133.66,59.72,132.38,62.25,132.38Z" transform="translate(0)"/><path class="cls-5" d="M85,124.77v28H79v-1.88a7.52,7.52,0,0,1-6,2.44c-5.24,0-9.56-4.61-9.56-10.57s4.32-10.57,9.56-10.57a7.52,7.52,0,0,1,6,2.44v-9.89Zm-6,18a4.77,4.77,0,1,0-4.77,4.88A4.58,4.58,0,0,0,79,142.79Z" transform="translate(0)"/><path class="cls-5" d="M88.78,127.42a3.61,3.61,0,1,1,3.61,3.6A3.65,3.65,0,0,1,88.78,127.42Zm.6,5.36h6v20h-6Z" transform="translate(0)"/><path class="cls-5" d="M98.79,142.79a10.59,10.59,0,0,1,19.66-5.45l-5.25,3a4.15,4.15,0,0,0-3.88-2.25,4.65,4.65,0,0,0,0,9.29,4.1,4.1,0,0,0,3.88-2.24l5.25,3a10.22,10.22,0,0,1-9,5.17A10.37,10.37,0,0,1,98.79,142.79Z" transform="translate(0)"/><path class="cls-5" d="M119.25,124.77H126l4.85,19.62,5.4-19.62h5.2l5.41,19.62,4.84-19.62h6.73l-7.73,28h-7.28l-4.57-16.54-4.56,16.54H127Z" transform="translate(0)"/><path class="cls-5" d="M179.13,132.78v20h-6v-1.88a7.53,7.53,0,0,1-6,2.44c-5.24,0-9.57-4.61-9.57-10.57s4.33-10.57,9.57-10.57a7.53,7.53,0,0,1,6,2.44v-1.88Zm-6,10a4.77,4.77,0,1,0-4.77,4.88A4.58,4.58,0,0,0,173.13,142.79Z" transform="translate(0)"/><path class="cls-5" d="M202.55,132.78,195.7,152.2c-2.24,6.36-5.8,8.88-11.41,8.6v-5.6c2.81,0,4.13-.88,5-3.32l-8-19.1h6.61L192.38,145l3.76-12.25Z" transform="translate(0)"/></svg>