<svg id="Слой_1" data-name="Слой 1" xmlns="http://www.w3.org/2000/svg" xmlns:xlink="http://www.w3.org/1999/xlink" viewBox="0 0 202.55 180.13"><defs><style>.cls-1{fill:#fff;}.cls-2{fill:url(#Безымянный_градиент);}.cls-3{fill:url(#Безымянный_градиент-2);}</style><linearGradient id="Безымянный_градиент" x1="43.57" y1="173.82" x2="43.57" y2="103.61" gradientTransform="matrix(1, 0, 0, -1, 0, 181.28)" gradientUnits="userSpaceOnUse"><stop offset="0" stop-color="#009eff"/><stop offset="1" stop-color="#00b4ff"/></linearGradient><linearGradient id="Безымянный_градиент-2" x1="120.4" y1="164.53" x2="120.4" y2="88.78" xlink:href="#Безымянный_градиент"/></defs><path class="cls-1" d="M123.35,16.63h0l-19.11,41L95.12,77.27A32.15,32.15,0,0,1,52.4,92.83h0L80.61,32.19a32.16,32.16,0,0,1,42.74-15.56Z" transform="translate(0 0)"/><path class="cls-2" d="M63,20.26A21.44,21.44,0,0,0,24.13,38.38L43.54,80.06,63,38.38A21.42,21.42,0,0,0,63,20.26ZM43.54,40.18a10.86,10.86,0,1,1,10.6-11.12v.26a10.73,10.73,0,0,1-10.6,10.86Z" transform="translate(0 0)"/><path class="cls-1" d="M195.86,38.29l-14.37-6.71L159.82,78c-7.28,15.62-26.24,22.2-42.34,14.7h0l19.07-40.9L152.33,18,138,11.29,178.47,0Z" transform="translate(0 0)"/><polygon class="cls-3" points="136.57 51.8 117.48 92.74 104.23 57.64 123.36 16.63 136.57 51.8"/><path class="cls-1" d="M70,172.74v3.09H61.8v-14H65v10.94Z" transform="translate(0 0)"/><path class="cls-1" d="M70.72,170.82a5.31,5.31,0,1,1,5.33,5.29h0a5.25,5.25,0,0,1-5.28-5.22Zm7.62,0A2.31,2.31,0,1,0,76,173.18,2.25,2.25,0,0,0,78.34,171Z" transform="translate(0 0)"/><path class="cls-1" d="M93.33,165.81v9.52c0,3.36-2.62,4.79-5.29,4.79a5.12,5.12,0,0,1-4.75-2.43l2.57-1.48a2.28,2.28,0,0,0,2.28,1.26,2,2,0,0,0,2.26-1.7,2.16,2.16,0,0,0,0-.44v-.92a3.59,3.59,0,0,1-2.93,1.3,5.09,5.09,0,0,1,0-10.18,3.59,3.59,0,0,1,2.93,1.3v-1Zm-2.92,4.81a2.43,2.43,0,1,0-2.54,2.32H88a2.27,2.27,0,0,0,2.41-2.12Z" transform="translate(0 0)"/><path class="cls-1" d="M95.24,163.12a1.81,1.81,0,1,1,1.82,1.8h0A1.82,1.82,0,0,1,95.24,163.12Zm.3,2.69h3v10h-3Z" transform="translate(0 0)"/><path class="cls-1" d="M108.43,172.82c0,2.31-2,3.29-4.17,3.29a4.4,4.4,0,0,1-4.31-2.39l2.61-1.48a1.64,1.64,0,0,0,1.7,1.18c.72,0,1.08-.22,1.08-.62,0-1.1-4.93-.52-4.93-4,0-2.18,1.85-3.28,3.93-3.28a4.39,4.39,0,0,1,3.91,2.14L105.68,169a1.45,1.45,0,0,0-1.34-.88c-.52,0-.84.2-.84.56C103.5,169.87,108.43,169.11,108.43,172.82Z" transform="translate(0 0)"/><path class="cls-1" d="M113.44,168.69v3.55c0,.86.74.94,2.07.86v2.73c-3.93.4-5.07-.78-5.07-3.59v-3.55h-1.61v-2.88h1.61V163.9l3-.9v2.81h2.07v2.88Z" transform="translate(0 0)"/><path class="cls-1" d="M116.91,163.12a1.81,1.81,0,1,1,1.82,1.8h0A1.83,1.83,0,0,1,116.91,163.12Zm.3,2.69h3v10h-3Z" transform="translate(0 0)"/><path class="cls-1" d="M121.92,170.82a5.31,5.31,0,0,1,9.85-2.73l-2.63,1.52a2.07,2.07,0,0,0-1.94-1.12,2.33,2.33,0,0,0,0,4.65,2.07,2.07,0,0,0,1.94-1.12l2.63,1.5a5.1,5.1,0,0,1-4.53,2.59,5.2,5.2,0,0,1-5.32-5.08Z" transform="translate(0 0)"/><path class="cls-1" d="M140.75,172.82c0,2.31-2,3.29-4.17,3.29a4.4,4.4,0,0,1-4.31-2.39l2.61-1.48a1.64,1.64,0,0,0,1.7,1.18c.72,0,1.08-.22,1.08-.62,0-1.1-4.93-.52-4.93-4,0-2.18,1.85-3.28,3.93-3.28a4.39,4.39,0,0,1,3.91,2.14L138,169.05a1.45,1.45,0,0,0-1.34-.88c-.52,0-.84.2-.84.56C135.82,169.87,140.75,169.11,140.75,172.82Z" transform="translate(0 0)"/><path class="cls-1" d="M22,124.77v28H17.21L6.41,137.58V152.8H0v-28H4.8L15.61,140V124.77Z" transform="translate(0 0)"/><path class="cls-1" d="M25.62,142.79a10.61,10.61,0,1,1,10.65,10.57h0A10.5,10.5,0,0,1,25.62,143Zm15.21,0a4.61,4.61,0,1,0-4.6,4.72,4.48,4.48,0,0,0,4.6-4.37A2,2,0,0,0,40.83,142.79Z" transform="translate(0 0)"/><path class="cls-1" d="M62.25,132.38v6.81c-2.49-.4-6,.6-6,4.56v9.05h-6v-20h6v3.56C57,133.66,59.72,132.38,62.25,132.38Z" transform="translate(0 0)"/><path class="cls-1" d="M85,124.77v28H79v-1.88a7.52,7.52,0,0,1-6,2.44c-5.24,0-9.56-4.61-9.56-10.57s4.32-10.57,9.56-10.57a7.52,7.52,0,0,1,6,2.44v-9.89Zm-6,18a4.77,4.77,0,1,0-4.77,4.88A4.57,4.57,0,0,0,79,143.27a3.84,3.84,0,0,0,0-.48Z" transform="translate(0 0)"/><path class="cls-1" d="M88.78,127.42A3.61,3.61,0,1,1,92.4,131h0A3.65,3.65,0,0,1,88.78,127.42Zm.6,5.36h6v20h-6Z" transform="translate(0 0)"/><path class="cls-1" d="M98.79,142.79a10.59,10.59,0,0,1,19.66-5.45l-5.25,3a4.16,4.16,0,0,0-3.88-2.25,4.65,4.65,0,0,0,0,9.29,4.1,4.1,0,0,0,3.88-2.24l5.25,3a10.23,10.23,0,0,1-9,5.17,10.37,10.37,0,0,1-10.66-10.07Z" transform="translate(0 0)"/><path class="cls-1" d="M119.25,124.77H126l4.85,19.62,5.4-19.62h5.2l5.41,19.62,4.84-19.62h6.73l-7.73,28h-7.28l-4.57-16.54-4.56,16.54H127Z" transform="translate(0 0)"/><path class="cls-1" d="M179.13,132.78v20h-6V150.9a7.52,7.52,0,0,1-6,2.44c-5.24,0-9.57-4.61-9.57-10.57s4.33-10.57,9.57-10.57a7.52,7.52,0,0,1,6,2.44v-1.88Zm-6,10a4.77,4.77,0,1,0-4.77,4.88,4.59,4.59,0,0,0,4.78-4.38c0-.16,0-.33,0-.49Z" transform="translate(0 0)"/><path class="cls-1" d="M202.55,132.78,195.7,152.2c-2.24,6.36-5.8,8.88-11.41,8.6v-5.6c2.81,0,4.13-.88,5-3.32l-8-19.1h6.61L192.38,145l3.76-12.25Z" transform="translate(0 0)"/></svg>