<svg id="Слой_1" data-name="Слой 1" xmlns="http://www.w3.org/2000/svg" viewBox="0 0 180 180"><defs><style>.cls-1{fill:#00009b;}.cls-2{fill:#fff;}.cls-3{fill:#0af;}</style></defs><rect class="cls-1" width="180" height="180" rx="35.08"/><path class="cls-2" d="M105.31,65.18v0L90.14,97.71l-7.23,15.5A25.5,25.5,0,0,1,49,125.55l22.4-48A25.52,25.52,0,0,1,105.31,65.18Z" transform="translate(0)"/><path class="cls-3" d="M57.41,68.05a17,17,0,0,0-30.83,0,17,17,0,0,0,0,14.38L42,115.5,57.41,82.43a17,17,0,0,0,0-14.38ZM42,83.86a8.62,8.62,0,1,1,8.4-8.61A8.51,8.51,0,0,1,42,83.86Z" transform="translate(0)"/><path class="cls-2" d="M162.83,82.36,151.43,77l-17.19,36.85c-5.77,12.4-20.81,17.62-33.59,11.66l0,0L115.8,93.07l12.5-26.81-11.4-5.32L149,52Z" transform="translate(0)"/><polygon class="cls-3" points="115.8 93.08 100.65 125.56 90.14 97.71 105.31 65.18 115.8 93.08"/></svg>