<svg id="Слой_1" data-name="Слой 1" xmlns="http://www.w3.org/2000/svg" viewBox="0 0 294.44 59.3"><defs><style>.cls-1{fill:#fff;}.cls-2{fill:#0af;}</style></defs><path class="cls-1" d="M62.65,10.29h0L50.82,35.66,45.13,47.8a19.91,19.91,0,0,1-26.45,9.63L36.2,19.92a19.89,19.89,0,0,1,26.44-9.63Z" transform="translate(-0.08 0)"/><path class="cls-2" d="M25.33,12.53a13.11,13.11,0,0,0-12-7.66,13.12,13.12,0,0,0-12,7.66,13.26,13.26,0,0,0,0,11.22l12,25.79,12-25.79A13.33,13.33,0,0,0,25.33,12.53Zm-12,12.33A6.72,6.72,0,1,1,19.88,18v.17a6.64,6.64,0,0,1-6.56,6.72h0Z" transform="translate(-0.08 0)"/><path class="cls-1" d="M107.51,23.69l-8.89-4.15L85.21,48.28C80.71,58,69,62,59,57.38h0l11.8-25.3,9.75-20.92L71.68,7,96.75,0Z" transform="translate(-0.08 0)"/><polygon class="cls-2" points="70.75 32.05 58.94 57.38 50.73 35.66 62.56 10.29 70.75 32.05"/><path class="cls-1" d="M131.38,52.88v2.59h-6.9V43.69h2.7v9.19Z" transform="translate(-0.08 0)"/><path class="cls-1" d="M132,51.26a4.46,4.46,0,1,1,4.48,4.44h0A4.4,4.4,0,0,1,132,51.34Zm6.4,0a1.94,1.94,0,1,0-1.94,2,1.88,1.88,0,0,0,1.9-1.88v-.12Z" transform="translate(-0.08 0)"/><path class="cls-1" d="M151,47.05v8c0,2.82-2.21,4-4.44,4a4.32,4.32,0,0,1-4-2l2.15-1.24a1.93,1.93,0,0,0,1.92,1.06,1.68,1.68,0,0,0,1.89-1.44,1.45,1.45,0,0,0,0-.36v-.78a3,3,0,0,1-2.46,1.1,4.28,4.28,0,0,1,0-8.55,3,3,0,0,1,2.46,1.09v-.86Zm-2.46,4a2,2,0,1,0-2,2,1.9,1.9,0,0,0,2-1.8v-.2Z" transform="translate(-0.08 0)"/><path class="cls-1" d="M152.56,44.8a1.52,1.52,0,1,1,1.53,1.51h0A1.53,1.53,0,0,1,152.56,44.8Zm.25,2.25h2.52v8.42h-2.52Z" transform="translate(-0.08 0)"/><path class="cls-1" d="M163.63,52.94c0,1.94-1.68,2.76-3.5,2.76a3.71,3.71,0,0,1-3.62-2l2.19-1.24a1.38,1.38,0,0,0,1.43,1c.61,0,.91-.19.91-.52,0-.93-4.14-.44-4.14-3.35,0-1.84,1.55-2.76,3.3-2.76a3.7,3.7,0,0,1,3.28,1.8l-2.15,1.15A1.24,1.24,0,0,0,160.2,49c-.44,0-.71.17-.71.47C159.49,50.47,163.63,49.83,163.63,52.94Z" transform="translate(-0.08 0)"/><path class="cls-1" d="M167.84,49.48v3c0,.72.62.79,1.73.72v2.29c-3.3.34-4.25-.66-4.25-3v-3H164V47.05h1.36V45.46l2.52-.76v2.35h1.73v2.43Z" transform="translate(-0.08 0)"/><path class="cls-1" d="M170.75,44.8a1.52,1.52,0,1,1,1.53,1.51h0A1.54,1.54,0,0,1,170.75,44.8Zm.25,2.25h2.53v8.42H171Z" transform="translate(-0.08 0)"/><path class="cls-1" d="M175,51.26A4.45,4.45,0,0,1,183.22,49L181,50.28a1.73,1.73,0,0,0-1.64-.94,2,2,0,0,0,0,3.9A1.72,1.72,0,0,0,181,52.3l2.2,1.26a4.26,4.26,0,0,1-3.8,2.17A4.35,4.35,0,0,1,175,51.49Z" transform="translate(-0.08 0)"/><path class="cls-1" d="M190.76,52.94c0,1.94-1.68,2.76-3.5,2.76a3.71,3.71,0,0,1-3.62-2l2.19-1.24a1.38,1.38,0,0,0,1.43,1c.61,0,.91-.19.91-.52,0-.93-4.14-.44-4.14-3.35,0-1.84,1.55-2.76,3.3-2.76a3.7,3.7,0,0,1,3.28,1.8l-2.15,1.16a1.24,1.24,0,0,0-1.13-.79c-.44,0-.71.17-.71.47C186.62,50.47,190.76,49.83,190.76,52.94Z" transform="translate(-0.08 0)"/><path class="cls-1" d="M143,12.55V36.07h-4L129.86,23.3V36.07h-5.37V12.55h4l9.07,12.77V12.55Z" transform="translate(-0.08 0)"/><path class="cls-1" d="M146,27.67a8.91,8.91,0,1,1,8.95,8.87h0A8.8,8.8,0,0,1,146,27.83Zm12.77,0a3.87,3.87,0,1,0-7.73-.39,2.54,2.54,0,0,0,0,.39,3.87,3.87,0,0,0,7.73.39A2.54,2.54,0,0,0,158.76,27.67Z" transform="translate(-0.08 0)"/><path class="cls-1" d="M176.74,18.93v5.72c-2.08-.34-5,.5-5,3.83v7.59h-5V19.27h5v3A5,5,0,0,1,176.74,18.93Z" transform="translate(-0.08 0)"/><path class="cls-1" d="M195.83,12.55V36.07h-5V34.49a6.32,6.32,0,0,1-5,2c-4.4,0-8-3.86-8-8.87s3.63-8.87,8-8.87a6.3,6.3,0,0,1,5,2.05V12.5Zm-5,15.12a4,4,0,1,0-4,4A4,4,0,0,0,190.83,27.67Z" transform="translate(-0.08 0)"/><path class="cls-1" d="M199,14.77a3,3,0,1,1,3,3A3.06,3.06,0,0,1,199,14.77Zm.5,4.5h5v16.8h-5Z" transform="translate(-0.08 0)"/><path class="cls-1" d="M207.42,27.67a8.89,8.89,0,0,1,16.5-4.57l-4.4,2.56a3.5,3.5,0,0,0-3.26-1.89,3.69,3.69,0,0,0-3.8,3.59,1.6,1.6,0,0,0,0,.31,3.71,3.71,0,0,0,3.49,3.9h.31a3.47,3.47,0,0,0,3.26-1.88l4.4,2.52a8.6,8.6,0,0,1-7.6,4.33,8.7,8.7,0,0,1-8.9-8.5Z" transform="translate(-0.08 0)"/><path class="cls-1" d="M224.59,12.55h5.65L234.33,29l4.54-16.47h4.37L247.74,29l4.07-16.47h5.65L251,36.05h-6.12L241,22.17l-3.83,13.88h-6.11Z" transform="translate(-0.08 0)"/><path class="cls-1" d="M274.86,19.27v16.8h-5V34.49a6.29,6.29,0,0,1-5,2c-4.4,0-8-3.86-8-8.87s3.63-8.87,8-8.87a6.3,6.3,0,0,1,5,2.05V19.27Zm-5,8.4a4,4,0,1,0-4,4A4,4,0,0,0,269.86,27.67Z" transform="translate(-0.08 0)"/><path class="cls-1" d="M294.52,19.27l-5.75,16.3c-1.88,5.34-4.87,7.46-9.57,7.22v-4.7c2.35,0,3.46-.74,4.2-2.79l-6.69-16h5.54L286,29.58l3.16-10.28Z" transform="translate(-0.08 0)"/></svg>