<?xml version="1.0" encoding="UTF-8"?>
<svg width="507px" height="217px" viewBox="0 0 507 217" version="1.1" xmlns="http://www.w3.org/2000/svg" xmlns:xlink="http://www.w3.org/1999/xlink">
    <!-- Generator: Sketch 51.3 (57544) - http://www.bohemiancoding.com/sketch -->
    <title>Group 2</title>
    <desc>Created with Sketch.</desc>
    <defs></defs>
    <g id="Page-1" stroke="none" stroke-width="1" fill="none" fill-rule="evenodd">
        <g id="Group-2" transform="translate(-3.000000, -2.000000)" fill-rule="nonzero">
            <g id="pickup-truck" transform="translate(213.371219, 116.578985) rotate(6.000000) translate(-213.371219, -116.578985) translate(17.371219, 55.078985)">
                <path d="M388.55,30.4181393 L367.226,26.8611704 L356.9035,6.53699317e-13 L332.12925,6.53699317e-13 C329.84875,6.53699317e-13 328.00025,1.8502944 328.00025,4.13244926 L328.00025,26.8739311 L266.0645,26.8739311 C264.92425,26.8736809 264,27.7989532 264,28.9401557 L264,57.8675507 C264,60.1499558 265.849,62.0002502 268.1295,62 L389.93575,61.9872393 C391.07575,61.9872393 392,61.061967 392,59.9210147 L392,34.4942916 C392,32.4738552 390.54075,30.7499163 388.55,30.4181393 Z" id="Shape" fill="#FFDC64"></path>
                <path d="M264,52 L392,52 L392,60 C392,61.1046258 391.07575,62 389.9355,62 L268.129,62 C265.84875,62.0002422 264,60.2090094 264,57.9997578 L264,52 Z" id="Shape" fill="#FFC850"></path>
                <g id="Group" transform="translate(273.000000, 45.000000)" fill="#E1A546">
                    <path d="M37.1153843,16.9672687 C36.0892102,7.54241791 28.2077622,0.209074627 18.6282166,0.209074627 C9.04766879,0.209074627 1.16496815,7.54470149 0.140547771,16.9713284 L37.1153843,16.9672687 Z" id="Shape"></path>
                    <path d="M117.802331,16.9672687 C116.776157,7.54241791 108.894709,0.209074627 99.3151635,0.209074627 C89.7346157,0.209074627 81.8519151,7.54470149 80.8274947,16.9713284 L117.802331,16.9672687 Z" id="Shape"></path>
                </g>
                <path d="M336.137896,36 L392,36 L392,35.2981351 C392,33.0982683 390.537606,31.2209978 388.542316,30.8594393 L367.249035,27 L336.137896,27 C333.852483,27 332,29.0148644 332,31.5 C332,33.9851356 333.852733,36 336.137896,36 Z" id="Shape" fill="#FFF082"></path>
                <circle id="Oval" fill="#5B5D6E" cx="371.5" cy="63.5" r="14.5"></circle>
                <circle id="Oval" fill="#C7CFE2" cx="371" cy="64" r="8"></circle>
                <circle id="Oval" fill="#AFB9D2" cx="371.5" cy="64.5" r="4.5"></circle>
                <circle id="Oval" fill="#5B5D6E" cx="290.5" cy="63.5" r="14.5"></circle>
                <circle id="Oval" fill="#C7CFE2" cx="291" cy="64" r="8"></circle>
                <path d="M383,37 L383,41 C383,43.2092516 385.014864,45 387.5,45 L392,45 L392,35 L385.25,35 C384.007296,35 383,35.895132 383,37 Z" id="Shape" fill="#FFFABE"></path>
                <circle id="Oval" fill="#AFB9D2" cx="291.5" cy="64.5" r="4.5"></circle>
                <path d="M358.928589,4 L334.071411,4 C332.92634,4 332,3.10438363 332,2 C332,0.895616372 332.926591,6.82121026e-13 334.071411,6.82121026e-13 L358.928589,6.82121026e-13 C360.07366,6.82121026e-13 361,0.895616372 361,2 C361,3.10438363 360.073409,4 358.928589,4 Z" id="Shape" fill="#FFF082"></path>
                <path d="M342.142821,28 L367,28 L359.829578,9 L340.071411,9 C338.927344,9 338,9.94510448 338,11.1110827 L338,23.7775789 C338,26.1095354 339.854938,28 342.142821,28 Z" id="Shape" fill="#00D7FF"></path>
                <path d="M361,13 L359.435557,9 L339.971499,9 C338.878876,9.0341487 338,9.90481957 338,10.9876483 L338,13 L361,13 Z" id="Shape" fill="#00C3FF"></path>
                <path d="M325.115268,62 L332,61.9992519 C329.803644,61.963096 328.03235,60.1393377 328.03235,57.887692 L328.03235,27 L324,27 L324,57.8874426 C324,59.3930281 324.424574,60.7856573 325.115268,62 Z" id="Shape" fill="#E1A546"></path>
                <path d="M317.92002,35 L270.07998,35 C268.93118,35 268,34.1046258 268,33 C268,31.8953742 268.93118,31 270.07998,31 L317.92002,31 C319.06882,31 320,31.8953742 320,33 C320,34.1043836 319.068568,35 317.92002,35 Z" id="Shape" fill="#FFF082"></path>
                <g id="car" transform="translate(68.557136, 76.163011) scale(-1, 1) rotate(13.000000) translate(-68.557136, -76.163011) translate(6.057136, 42.663011)">
                    <polygon id="Shape" fill="#2D2D30" points="114.233681 12 104 20.7534213 115 21"></polygon>
                    <path d="M112,9.56168417 L112,21 L117.203061,21 C118.989507,21 120.660659,20.1135783 121.66967,18.6312429 L123.053944,16.5971907 C123.670411,15.6914018 124,14.6197503 124,13.5220275 L124,9.56168417 C124,8.14688564 122.859647,7 121.452907,7 L114.546846,7 C113.140353,7 112,8.14688564 112,9.56168417 Z" id="Shape" fill="#57565C"></path>
                    <path d="M114.468843,7.00024829 C113.105452,7.00024829 112,8.14711359 112,9.56188703 L112,21 L117.042728,21 C117.723227,21 118.38578,20.8612042 119,20.6047176 L119,7 L114.468843,7 L114.468843,7.00024829 Z" id="Shape" fill="#3E3D42"></path>
                    <path d="M4.91908803,54 L2.25801427,48.8095309 C-1.67415825,41.1400975 -0.388199961,31.8184288 5.47254461,25.5102495 C5.47254461,25.5102495 10.7839738,18.9176912 19.5932387,18.9176912 L29.4117337,18.4205779 C33.7502291,18.2009971 37.8738703,16.4590222 41.0630664,13.498594 L43.5830964,11.1594963 C51.3124877,3.98497548 60.7100439,0 71.9811187,0 C83.2521936,0 95.5605124,5.24695366 103.503296,14.3893877 L106.710275,18.0804477 L112.453118,18.1733661 C116.544604,18.2396316 119.899934,21.4477606 120.164239,25.5466833 L122,53.9992664 L4.91908803,53.9992664 L4.91908803,54 Z" id="Shape" fill="#E0E0E2"></path>
                    <path d="M69,0 C58.9628042,0.591167587 50.4855642,4.49351038 43.4122601,11.0948001 L40.9021119,13.4374303 C37.725179,16.4023292 33.6177079,18.1469348 29.2964677,18.3668472 L19.5164741,18.8647112 C10.741753,18.8647112 5.45115164,25.4672254 5.45115164,25.4672254 C-0.386853766,31.7851759 -1.66752677,41.1209219 2.24922648,48.8016925 L4.89986534,54 L69,54 L69,0 Z" id="Shape" fill="#D8D7DA"></path>
                    <path d="M31,18 C30.5212091,18.0621166 30.0394809,18.1089505 29.5543257,18.1335999 L19.6879536,18.6347228 C10.8359524,18.6347228 5.49875592,25.2804557 5.49875592,25.2804557 C-0.390176021,31.6395158 -1.68212809,41.0363716 2.26887576,48.7676654 L4.94285916,54 L29.2823745,54 L28.0065779,51.5037522 C22.443449,40.6175778 23.7035795,27.5689089 31,18 Z" id="Shape" fill="#C6C5CA"></path>
                    <g id="Group" transform="translate(15.000000, 0.000000)" fill="#FF3F62">
                        <path d="M73.7073781,51.2278449 C73.6915834,51.2278449 73.6862375,52.4035188 73.6859945,53.9725462 L106.874471,53.9725462 L105.043262,25.6140443 C104.77937,21.528675 101.432602,18.331154 97.3512608,18.2651077 L91.6226577,18.1724965 C91.6229007,18.1722528 89.3768995,40.3840568 73.7073781,51.2278449 Z" id="Shape"></path>
                        <path d="M25.131983,36.4551516 C25.131983,36.4551516 54.9085692,38.6551533 84.3116724,10.4277692 C76.6009605,3.84409291 66.4260381,0.151346079 56.9801001,0.151346079 C45.7367295,0.151346079 36.362475,4.12290115 28.6524921,11.2739424 L26.1387106,13.6053057 C22.9571793,16.5559449 18.8437629,18.2921599 14.516268,18.5110146 L4.72211849,19.0064841 C3.08117441,19.0064841 1.56221375,19.2360622 0.17665724,19.6084564 C2.66176534,25.5504351 9.47606929,36.9204006 25.131983,36.4551516 Z" id="Shape"></path>
                    </g>
                    <path d="M69,0 C58.9669692,0.584068291 50.4934895,4.43954808 43.4231206,10.9615633 L40.914014,13.276061 C37.7383995,16.2053546 33.6326328,17.9290093 29.3131858,18.1462808 L19.537008,18.638166 C17.8991156,18.638166 16.3829798,18.8660833 15,19.2357835 C17.4804865,25.1347764 24.2818753,36.4224889 39.9091587,35.9606056 C39.9091587,35.9606056 52.3103786,36.8688874 69,29.9628969 L69,0 Z" id="Shape" fill="#FF0C38"></path>
                    <path d="M29.5459699,18.1332276 L19.6107962,18.6348048 C17.9462657,18.6348048 16.405472,18.867213 15,19.2441977 C16.4821297,22.780897 19.4833621,28.2160895 24.9317229,32 C25.7631255,26.9844744 27.8067538,22.1631157 31,18 C30.5188563,18.0616794 30.0340153,18.1085558 29.5459699,18.1332276 Z" id="Shape" fill="#D80027"></path>
                    <path d="M121.022291,41 L0,41 C0.232494066,43.6239964 0.949452208,46.2279833 2.17205451,48.6686426 L3.33988073,51 L122.991552,51 L123.898401,45.8750657 C124.646034,41.8066332 121.022291,41 121.022291,41 Z" id="Shape" fill="#C6C5CA"></path>
                    <g id="Group" transform="translate(0.000000, 41.000000)" fill="#ACABB1">
                        <path d="M0.907063131,4.20032381 C1.25419575,5.29776566 1.69631008,6.37714263 2.24700963,7.42371757 L3.41229668,9.63928082 L122.803813,9.63928082 L123.70869,4.76889234 C123.747072,4.57065398 123.771121,4.38239885 123.787153,4.20032381 L0.907063131,4.20032381 Z" id="Shape"></path>
                        <path d="M69.0786632,0.135962041 L0.0811352667,0.135962041 C0.313123829,2.62962947 1.02852311,5.10428122 2.24846715,7.42371757 L3.4137542,9.63928082 L69.0786632,9.63928082 L69.0786632,0.135962041 Z" id="Shape"></path>
                    </g>
                    <path d="M0,41 C0.236250387,43.6239964 0.964792154,46.2279833 2.20714759,48.6686426 L3.39384194,51 L28,51 C26.4308521,47.7969786 25.4361267,44.4186238 24.9935592,41.0002501 L0,41.0002501 L0,41 Z" id="Shape" fill="#898890"></path>
                    <path d="M120.801758,49 L4.19824219,49 C1.8894043,49 0,50.7999535 0,53 C0,55.2000465 1.8894043,57 4.19824219,57 L120.801758,57 C123.11084,57 125,55.1998139 125,53 C125,50.7999535 123.110596,49 120.801758,49 Z" id="Shape" fill="#FF3F62"></path>
                    <path d="M69,49 L4.17250947,49 C1.87758073,49 0,50.7999535 0,53 C0,55.2000465 1.87758073,57 4.17250947,57 L69,57 L69,49 Z" id="Shape" fill="#FF0C38"></path>
                    <path d="M26.8376586,49 L4.23449229,49 C1.90547228,49 0,50.7999535 0,53 C0,55.2000465 1.90547228,57 4.23449229,57 L31,57 L28.1745427,51.8139102 C27.6721953,50.8913701 27.2304252,49.951384 26.8376586,49 Z" id="Shape" fill="#D80027"></path>
                    <path d="M0,37 L5.71507713,37 C6.84792597,37 7.89169609,36.4103623 8.44262856,35.4592662 L9.601378,33.4589173 C10.7596433,31.4592662 9.25522974,29 6.87382657,29 L2.91563338,29 C1.32577202,31.451823 0.345906193,34.1885794 0,37 Z" id="Shape" fill="#FFEB99"></path>
                    <path d="M6.97874894,29 L6.25219275,29 C6.55207847,30.1318253 6.44470909,31.3880909 5.79511265,32.5482933 L3.9986054,35.7572251 C3.73333987,36.2312613 3.39392164,36.6487759 3,37 L5.85897287,37 C6.95371948,37 7.96238344,36.4103623 8.49478585,35.4592662 L9.61456192,33.4589173 C10.734338,31.4594987 9.28028994,29 6.97874894,29 Z" id="Shape" fill="#FFE477"></path>
                    <path d="M121.327356,32 L118.708202,32 C117.615351,32 116.631837,32.6393037 116.223057,33.6155174 L114.197075,38.4543158 C113.487033,40.1503714 114.783236,42 116.68222,42 L122,42 L121.327356,32 Z" id="Shape" fill="#FFEB99"></path>
                    <path d="M121,32 L118.497859,32 C117.453832,32 116.514257,32.6393037 116.12374,33.6155174 L114.18827,38.4543158 C113.509951,40.1503714 114.748244,42 116.56239,42 L116.978462,42 C117.003769,41.9259648 121,32 121,32 Z" id="Shape" fill="#FFE477"></path>
                    <path d="M95,16.7073394 C95,15.2451866 94.2416708,13.8730417 92.9678729,13.0942375 C87.7780728,9.92075255 80.4956743,7 71.2562502,7 C57.1961933,7 48.5112516,13.7643217 44.5223426,17.8890468 C43.3814351,19.0688593 44.2309588,21 45.8973323,21 L90.5814524,21 C93.0217606,21 95,19.0783338 95,16.7078131 L95,16.7073394 Z" id="Shape" fill="#3E3D42"></path>
                    <g id="Group" transform="translate(51.000000, 10.000000)" fill="#1D1D1F">
                        <path d="M16.9061035,0.271232602 C9.33055284,1.19565347 3.80262744,4.48233916 0.15613112,7.5628777 L16.9061035,7.5628777 L16.9061035,0.271232602 Z" id="Shape"></path>
                        <path d="M41.0507011,6.08924971 C30.6861478,-0.647224259 20.776486,0.0194478443 20.5884413,0.0225594994 L20.5884413,7.5628777 L40.6098025,7.5628777 C41.0320439,7.5628777 41.3757288,7.19985127 41.3757288,6.75255085 C41.3759742,6.47716938 41.2527387,6.22071714 41.0507011,6.08924971 Z" id="Shape"></path>
                    </g>
                    <circle id="Oval" fill="#57565C" cx="90.5" cy="53.5" r="13.5"></circle>
                    <path d="M91,63 C85.4860256,63 81,58.5139744 81,53 C81,47.4860256 85.4860256,43 91,43 C96.5139744,43 101,47.4860256 101,53 C101,58.5139744 96.5137251,63 91,63 Z" id="Shape" fill="#3E3D42"></path>
                    <path d="M90,59 C86.6915173,59 84,56.3084827 84,53 C84,49.6915173 86.6915173,47 90,47 C93.3084827,47 96,49.6915173 96,53 C96,56.3084827 93.3082437,59 90,59 Z" id="Shape" fill="#C6C5CA"></path>
                    <circle id="Oval" fill="#57565C" cx="34.5" cy="53.5" r="13.5"></circle>
                    <path d="M33.9998753,63 C28.4858322,63 24,58.5139744 24,53 C24,47.4860256 28.4858322,43 33.9998753,43 C39.5139185,43 44,47.4860256 44,53 C44,58.5139744 39.5136692,63 33.9998753,63 Z" id="Shape" fill="#3E3D42"></path>
                    <path d="M33.9998805,59 C30.6915709,59 28,56.3084827 28,53 C28,49.6915173 30.6915709,47 33.9998805,47 C37.3084291,47 40,49.6915173 40,53 C40,56.3084827 37.3081901,59 33.9998805,59 Z" id="Shape" fill="#C6C5CA"></path>
                    <g id="Group" transform="translate(28.000000, 47.000000)" fill="#ACABB1">
                        <path d="M5.52484693,6.00847633 C5.52484693,3.65481177 6.9374958,1.61585656 8.9830545,0.644631213 C8.16826276,0.257900024 7.25321535,0.0401706029 6.28669192,0.0401706029 C2.89295193,0.0401706029 0.131876643,2.71757694 0.131876643,6.00871402 C0.131876643,9.29985111 2.89295193,11.9772574 6.28669192,11.9772574 C7.25346047,11.9772574 8.16826276,11.7592903 8.9830545,11.3725591 C6.93725068,10.4013338 5.52484693,8.36190319 5.52484693,6.00847633 Z" id="Shape"></path>
                        <path d="M62.2185666,6.00847633 C62.2185666,3.65481177 63.6312155,1.61585656 65.6767742,0.644631213 C64.8619824,0.257900024 63.946935,0.0401706029 62.9804116,0.0401706029 C59.5866716,0.0401706029 56.8255963,2.71757694 56.8255963,6.00871402 C56.8255963,9.29985111 59.5866716,11.9772574 62.9804116,11.9772574 C63.9471801,11.9772574 64.8619824,11.7592903 65.6767742,11.3725591 C63.6309703,10.4013338 62.2185666,8.36190319 62.2185666,6.00847633 Z" id="Shape"></path>
                    </g>
                </g>
            </g>
            <g id="suv-(1)" transform="translate(315.000000, 42.500000) rotate(-2.000000) translate(-315.000000, -42.500000) translate(240.000000, 14.000000)">
                <path d="M143.092231,24.6445011 C138.23469,21.6797382 122.566512,17.8890336 100.578886,17.8890336 L88.9642586,4.46205356 C86.5145994,1.63017087 82.9381263,0 79.1740942,0 L24.9035535,0 C22.1675895,0 19.5435181,1.0772271 17.6089155,2.99458133 L4.5995747,15.8874351 C3.27789813,17.1971302 2.34010374,18.8385915 1.88639824,20.6352245 L0,28.1112559 L38.6847487,46 L147,46 L147,31.5531137 C146.999708,28.7276 145.519687,26.1264483 143.092231,24.6445011 Z" id="Shape" fill="#87D7FF"></path>
                <path d="M89.4368389,4.48973185 C86.9979732,1.64028288 83.4372583,0 79.689811,0 L25.6583919,0 C22.9344829,0 20.3219734,1.08390918 18.3958949,3.01315683 L6,15.4284466 L12.7139341,15.4284466 C15.0821206,15.4284466 17.4485621,15.5595294 19.8022056,15.821695 L39.3768297,18 L101,18 L89.4368389,4.48973185 Z" id="Shape" fill="#64BEF0"></path>
                <path d="M84.7179024,18 L42.2272002,18 C39.9610333,18 37.6968957,17.8773718 35.4446441,17.6332484 L22.1247893,16.1871991 C19.3779642,15.8889833 18.0464426,12.7490796 19.7731012,10.6406117 L24.4932918,4.87652223 C25.4644647,3.69045596 26.9351395,3 28.489886,3 L72.2561586,3 C73.7749572,3 75.2154821,3.65902011 76.1878147,4.79864061 L85.7009613,15.9495894 C86.3955674,16.7640895 85.8027171,18 84.7179024,18 Z" id="Shape" fill="#625D6B"></path>
                <path d="M147,33.5 C147,28.25 139.263389,23 103.15852,23 L2.57994169,23 C1.15572974,23 0.00116858416,24.1751912 0.00116858416,25.6248513 L0,38.75 L49.0010712,44 L147,44 L147,33.5 Z" id="Shape" fill="#64BEF0"></path>
                <path d="M146.431783,40.9990995 L25.9717669,40.9990995 L3.12700071,36.0582494 C1.75485965,35.7650785 0.369913888,36.6063515 0.0611457743,37.9566371 C-0.245003195,39.3046567 0.628336212,40.640213 2.01299096,40.9393323 L25.1333494,45.9402328 C25.3163986,45.9804553 25.5020669,46 25.6900633,46 L146.43091,46 C147.850777,46 149,44.8802855 149,43.4996914 C149,42.1190973 147.85165,40.9990995 146.431783,40.9990995 Z" id="Shape" fill="#00AADC"></path>
                <circle id="Oval" fill="#EDEDEE" cx="21.5" cy="42.5" r="11.5"></circle>
                <path d="M22,57 C14.2798295,57 8,50.7198822 8,43 C8,35.2798295 14.2801178,29 22,29 C29.7198822,29 36,35.2801178 36,43 C36,50.7198822 29.7201705,57 22,57 Z M22,34.0906469 C17.0866923,34.0906469 13.0909353,38.086404 13.0909353,42.9997116 C13.0909353,47.9130193 17.0866923,51.9087763 22,51.9087763 C26.9133077,51.9087763 30.9090647,47.9130193 30.9090647,42.9997116 C30.9090647,38.086404 26.9133077,34.0906469 22,34.0906469 Z" id="Shape" fill="#504B5A"></path>
                <circle id="Oval" fill="#DCDBDE" cx="22" cy="43" r="5"></circle>
                <g id="Group" transform="translate(39.000000, 31.000000)" fill="#00AADC">
                    <path d="M64.1858041,4.86394737 L2.68239181,4.86394737 C1.26716886,4.86394737 0.119894786,3.82394737 0.119894786,2.54105263 C0.119894786,1.25815789 1.26745916,0.218157895 2.68239181,0.218157895 L64.1858041,0.218157895 C65.601027,0.218157895 66.7483011,1.25842105 66.7483011,2.54105263 C66.7483011,3.82394737 65.601027,4.86394737 64.1858041,4.86394737 Z" id="Shape"></path>
                    <path d="M107.752318,4.86394737 L105.189821,4.86394737 C103.774598,4.86394737 102.627033,3.82394737 102.627033,2.54105263 C102.627033,1.25815789 103.774598,0.218157895 105.189821,0.218157895 L107.752318,0.218157895 C109.167541,0.218157895 110.314815,1.25842105 110.314815,2.54105263 C110.314815,3.82394737 109.167541,4.86394737 107.752318,4.86394737 Z" id="Shape"></path>
                </g>
                <rect id="Rectangle-path" fill="#504B5A" x="57" y="3" width="5" height="15"></rect>
                <path d="M144.215578,26 L141.706838,26 C140.211898,26 139,27.1195763 139,28.5 C139,29.8807069 140.212205,31 141.706838,31 L147,31 C146.765103,29.0556814 145.784729,27.29659 144.215578,26 Z" id="Shape" fill="#EDEDEE"></path>
                <path d="M88.4889416,4.86487558 C87.8765435,4.16593664 87.1917578,3.54261224 86.4516681,3 L82.2804115,3 C81.1969156,3 80.6050755,4.23588717 81.2985476,5.05037194 L90.7995502,16.2011101 C91.7707008,17.3409923 93.2094745,18 94.7264267,18 L100,18 L88.4889416,4.86487558 Z" id="Shape" fill="#625D6B"></path>
                <polygon id="Shape" fill="#504B5A" points="34.1141935 18 39 3 33.9333971 3 27 17.1911736"></polygon>
                <path d="M1.59549398,21.68636 L1,24 L7.42836333,24 C8.84863395,24 10,22.8804237 10,21.5 C10,20.1195763 8.84834261,19 7.42836333,19 L2.74919073,19 C2.23760197,19.8349383 1.84050887,20.7353008 1.59549398,21.68636 Z" id="Shape" fill="#FF6464"></path>
                <circle id="Oval" fill="#EDEDEE" cx="122.5" cy="42.5" r="11.5"></circle>
                <path d="M122,57 C114.279829,57 108,50.7198822 108,43 C108,35.2798295 114.280118,29 122,29 C129.719882,29 136,35.2801178 136,43 C136,50.7198822 129.720171,57 122,57 Z M122,34.0906469 C117.086692,34.0906469 113.090935,38.086404 113.090935,42.9997116 C113.090935,47.9130193 117.086692,51.9087763 122,51.9087763 C126.913308,51.9087763 130.909065,47.9130193 130.909065,42.9997116 C130.909065,38.086404 126.913308,34.0906469 122,34.0906469 Z" id="Shape" fill="#504B5A"></path>
                <circle id="Oval" fill="#DCDBDE" cx="122" cy="43" r="5"></circle>
            </g>
            <g id="car-(2)" transform="translate(186.075531, 40.911091) scale(-1, 1) rotate(4.000000) translate(-186.075531, -40.911091) translate(136.075531, 9.411091)">
                <path d="M96,43.1627675 L63.2836045,52 L36.4142206,52 L11.129741,44.5468819 L3,42.1496507 L5.6631843,28.827864 C5.75274891,28.3779347 5.87677643,27.9402232 6.03137274,27.516863 C7.06487049,24.6615572 9.48992974,22.4811454 12.5152666,21.7779369 L25.6701665,18.7321869 L33.0512641,17.0218736 L36.2189308,6.82903506 C37.4802342,2.76803503 41.2501256,0 45.5184635,0 L75.669417,0 C79.1361516,0 82.340423,1.83598316 84.0840124,4.82083758 L93.2573758,20.5256983 C93.9368986,21.6867874 94.3498694,22.9857644 94.4637722,24.3252738 L94.7385019,27.516863 L96,43.1627675 Z" id="Shape" fill="#F42737"></path>
                <path d="M95,28 L6,28 C7.03690762,25.0945407 9.46996798,22.8758299 12.5052865,22.1604669 L33.1090393,17.3208632 L36.2871573,6.94898722 C37.5526222,2.81665562 41.3349517,0 45.6173724,0 L75.8678042,0 C79.3459768,0 82.5608202,1.86823224 84.3101623,4.9055157 L93.5137918,20.8862326 C94.1955566,22.0677163 94.6098899,23.3895099 94.7241685,24.7525478 L95,28 Z" id="Shape" fill="#FC4C62"></path>
                <path d="M10.9858889,42.5855608 C11.0994735,43.4324994 11.18402,44.2366614 11.2480225,45 L3,42.5855608 L5.70193158,29.1681466 C5.79279929,28.7149876 5.91863132,28.2741342 6.07547688,27.847735 C7.12401123,24.971933 9.58435323,22.7758696 12.6537064,22.0676133 L26,19 C18.9676295,20.6165277 9.12408853,28.6436932 10.9858889,42.5855608 Z" id="Shape" fill="#E21E36"></path>
                <g id="Group" transform="translate(0.000000, 42.000000)" fill="#9AA7B8">
                    <path d="M81.225,0.0150980392 L95.0396484,0.0150980392 C97.7791016,0.0150980392 99.9998047,2.24470588 99.9998047,4.99470588 C99.9998047,7.74490196 97.7789062,9.97431373 95.0396484,9.97431373 L87.4794922,9.97431373" id="Shape"></path>
                    <path d="M13.5652344,9.9745098 L4.96015625,9.9745098 C2.22089844,9.9745098 0,7.74490196 0,4.99470588 C0,2.2445098 2.22089844,0.0150980392 4.96015625,0.0150980392 L20.6128906,0.0150980392" id="Shape"></path>
                </g>
                <path d="M6.2245205,47 C6.2245205,44.2385415 8.36273035,42 11,42 L4.7754795,42 C2.13820985,42 0,44.2387384 0,47 C0,49.7614585 2.13820985,52 4.7754795,52 L11,52 C8.36273035,52.0001969 6.2245205,49.7614585 6.2245205,47 Z" id="Shape" fill="#8292A3"></path>
                <path d="M20,31.9997985 C20,33.7681962 18.8525664,35.267214 17.2630837,35.7956984 C16.8651589,35.9282728 16.4420491,36 16,36 C13.7895532,36 12,34.2104468 12,32 C12,29.791568 13.7895532,28 16,28 C16.4420491,28 16.8653604,28.0715257 17.2630837,28.2043016 C18.8525664,28.7325845 20,30.2336171 20,31.9997985 Z" id="Shape" fill="#DDB303"></path>
                <path d="M20,31.4999071 C20,33.1304971 18.9518919,34.5126994 17.5,35 C16.0462677,34.5126994 15,33.1306829 15,31.4999071 C15,29.8711749 16.0460836,28.4871148 17.5,28 C18.9518919,28.4873006 20,29.8713607 20,31.4999071 Z" id="Shape" fill="#F0C800"></path>
                <path d="M85,21 L39,21 L39.5331605,19.2283528 L42.7139408,8.64478453 C43.1878613,7.06242449 44.5892894,6 46.1971778,6 L74.4300493,6 C75.7231639,6 76.9306443,6.71546516 77.5822849,7.86629078 L85,21 Z" id="Shape" fill="#A0D9F2"></path>
                <path d="M85.4700921,23 L39.5302854,23 C39.0442934,23 38.5870041,22.7638225 38.2986112,22.3639378 C38.0102182,21.9640532 37.9246961,21.4475771 38.0684045,20.973026 L41.7763139,8.72473686 C42.4507278,6.49712182 44.4362849,5 46.717069,5 L74.9131917,5 C76.7480113,5 78.4609913,6.00739788 79.3837706,7.6288972 L86.792365,20.648806 C87.0678711,21.1327403 87.0692379,21.7302714 86.7962701,22.2156032 C86.5233024,22.7007354 86.0175896,23 85.4700921,23 Z M41.6058555,19.8707978 L82.80934,19.8707978 L76.738639,9.20228258 C76.3617952,8.54006721 75.6623885,8.12900256 74.9131917,8.12900256 L46.7172643,8.12900256 C45.7860889,8.12900256 44.9753865,8.740309 44.6998804,9.64968224 L41.6058555,19.8707978 Z" id="Shape" fill="#F42737"></path>
                <path d="M63.430193,28 L57.569807,28 C56.7028777,28 56,27.3283782 56,26.5 C56,25.6716218 56.7028777,25 57.569807,25 L63.430193,25 C64.2971223,25 65,25.6716218 65,26.5 C65,27.3283782 64.2971223,28 63.430193,28 Z" id="Shape" fill="#2C4046"></path>
                <path d="M61.5,23 C60.6716218,23 60,22.299461 60,21.4354163 L60,6.56458375 C60,5.70053903 60.6716218,5 61.5,5 C62.3283782,5 63,5.70053903 63,6.56458375 L63,21.4354163 C63,22.299461 62.3283782,23 61.5,23 Z" id="Shape" fill="#F42737"></path>
                <path d="M86.5118389,3 L76.4881611,3 C75.666321,3 75,2.32837821 75,1.5 C75,0.671621794 75.666321,0 76.4881611,0 L86.5118389,0 C87.333679,0 88,0.671621794 88,1.5 C88,2.32837821 87.333679,3 86.5118389,3 Z" id="Shape" fill="#FC4C62"></path>
                <g id="Group" transform="translate(13.000000, 39.000000)" fill="#2C4046">
                    <ellipse id="Oval" cx="11.9833984" cy="11.9891613" rx="11.9765625" ry="11.8683871"></ellipse>
                    <ellipse id="Oval" cx="62.8916016" cy="11.9891613" rx="11.9765625" ry="11.8683871"></ellipse>
                </g>
                <g id="Group" transform="translate(20.000000, 45.000000)" fill="#9AA7B8">
                    <ellipse id="Oval" cx="5.54577287" cy="5.489" rx="5.37522397" ry="5.39844643"></ellipse>
                    <ellipse id="Oval" cx="56.5246372" cy="5.489" rx="5.37522397" ry="5.39844643"></ellipse>
                </g>
                <g id="Group" transform="translate(18.000000, 44.000000)" fill="#1D2C30">
                    <path d="M6.92171687,13.8578611 C3.10884036,13.8578611 0.00665662651,10.7770833 0.00665662651,6.99008333 C0.00665662651,3.20308333 3.10884036,0.122305556 6.92171687,0.122305556 C10.7345934,0.122305556 13.8367771,3.20308333 13.8367771,6.99008333 C13.8367771,10.7770833 10.7345934,13.8578611 6.92171687,13.8578611 Z M6.92171687,3.17022222 C4.80099398,3.17022222 3.07536145,4.88386111 3.07536145,6.99027778 C3.07536145,9.09669444 4.80099398,10.8103333 6.92171687,10.8103333 C9.04243976,10.8103333 10.7680723,9.09669444 10.7680723,6.99027778 C10.7680723,4.88386111 9.04263554,3.17022222 6.92171687,3.17022222 Z" id="Shape"></path>
                    <path d="M57.9521988,13.8578611 C54.1393223,13.8578611 51.0371386,10.7770833 51.0371386,6.99008333 C51.0371386,3.20308333 54.1393223,0.122305556 57.9521988,0.122305556 C61.7650753,0.122305556 64.867259,3.20308333 64.867259,6.99008333 C64.867259,10.7770833 61.7650753,13.8578611 57.9521988,13.8578611 Z M57.9521988,3.17022222 C55.8314759,3.17022222 54.1058434,4.88386111 54.1058434,6.99027778 C54.1058434,9.09669444 55.8314759,10.8103333 57.9521988,10.8103333 C60.0729217,10.8103333 61.7985542,9.09669444 61.7985542,6.99027778 C61.7985542,4.88386111 60.0729217,3.17022222 57.9521988,3.17022222 Z" id="Shape"></path>
                </g>
                <path d="M58.5148055,47 L41.4851945,47 C40.6649927,47 40,46.3283782 40,45.5 C40,44.6716218 40.6649927,44 41.4851945,44 L58.5148055,44 C59.3350073,44 60,44.6716218 60,45.5 C60,46.3283782 59.3350073,47 58.5148055,47 Z" id="Shape" fill="#FC4C62"></path>
            </g>
            <g id="delivery-truck" transform="translate(6.000000, 62.000000)">
                <path d="M148.203,139.424 L26.712,139.424 C21.92,139.424 18.034,135.538 18.034,130.746 L18.034,113.39 L148.203,113.39 L148.203,139.424 Z" id="Shape" fill="#8D8A94"></path>
                <path d="M354.658772,122.068 L14.2635626,122.068 C6.76160178,122.068 0.678,118.182 0.678,113.39 L0.678,96.034 L449,96.034 L378.961869,118.404 C371.414508,120.813 363.095347,122.068 354.658772,122.068 Z" id="Shape" fill="#A7A5AC"></path>
                <circle id="Oval" fill="#504B5A" cx="130.847" cy="130.746" r="26.034"></circle>
                <circle id="Oval" fill="#DCDBDE" cx="130.847" cy="130.746" r="13.017"></circle>
                <circle id="Oval" fill="#504B5A" cx="78.78" cy="130.746" r="26.034"></circle>
                <circle id="Oval" fill="#DCDBDE" cx="78.78" cy="130.746" r="13.017"></circle>
                <rect id="Rectangle-path" fill="#B9B7BD" x="313.085" y="104.712" width="190.915" height="34.712"></rect>
                <circle id="Oval" fill="#504B5A" cx="365.153" cy="130.746" r="26.034"></circle>
                <circle id="Oval" fill="#DCDBDE" cx="365.153" cy="130.746" r="13.017"></circle>
                <circle id="Oval" fill="#504B5A" cx="313.085" cy="130.746" r="26.034"></circle>
                <circle id="Oval" fill="#DCDBDE" cx="313.085" cy="130.746" r="13.017"></circle>
                <path d="M504,122.068 L460.61,122.068 L460.61,104.712 L417.22,104.712 L417.22,9.254 L487.661,9.254 C492.038,9.254 495.729,12.513 496.272,16.856 L502.325,65.276 C503.441,74.202 504,83.189 504,92.185 L504,122.068 Z" id="Shape" fill="#FF9164"></path>
                <rect id="Rectangle-path" fill="#FF7D5A" x="460.61" y="104.712" width="43.39" height="17.356"></rect>
                <circle id="Oval" fill="#504B5A" cx="460.61" cy="130.746" r="26.034"></circle>
                <circle id="Oval" fill="#DCDBDE" cx="460.61" cy="130.746" r="13.017"></circle>
                <g id="Group" transform="translate(434.000000, 26.000000)" fill="#FF7D5A">
                    <path d="M26.61,0.61 L4.915,0.61 C2.519,0.61 0.576,2.553 0.576,4.949 L0.576,30.101 C0.576,33.151 2.695,35.793 5.672,36.454 L26.61,41.106 L26.61,0.61 Z" id="Shape"></path>
                    <path d="M68.325,39.276 L63.491,0.61 L4.915,0.61 C2.519,0.61 0.576,2.553 0.576,4.949 L0.576,30.101 C0.576,33.151 2.695,35.793 5.672,36.454 L69.385,50.612 C69.113,46.827 68.796,43.043 68.325,39.276 Z" id="Shape"></path>
                </g>
                <path d="M460.61,67.107 L503.386,76.613 C503.114,72.827 502.796,69.044 502.325,65.275 L497.491,26.61 L460.61,26.61 L460.61,67.107 Z" id="Shape" fill="#625D6B"></path>
                <path d="M193.923199,19.9136651 L15.0614062,19.9136651 C12.7097825,19.9136651 10.8027687,18.554796 10.8027687,16.8791139 C10.8027687,15.2034317 12.7097825,13.8445626 15.0614062,13.8445626 L193.923689,13.8445626 C196.275313,13.8445626 198.182327,15.2034317 198.182327,16.8791139 C198.181836,18.554796 196.275313,19.9136651 193.923199,19.9136651 Z" id="Shape" fill="#FF9164" transform="translate(104.492548, 16.879114) rotate(-4.000000) translate(-104.492548, -16.879114) "></path>
                <path d="M274.125018,15.2375046 L193.853489,15.2375046 C192.798102,15.2375046 191.942251,13.8786355 191.942251,12.2029533 C191.942251,10.5272712 192.798102,9.16840206 193.853489,9.16840206 L274.125239,9.16840206 C275.180626,9.16840206 276.036476,10.5272712 276.036476,12.2029533 C276.036256,13.8786355 275.180626,15.2375046 274.125018,15.2375046 Z" id="Shape" fill="#FF9164" transform="translate(233.989364, 12.202953) rotate(3.000000) translate(-233.989364, -12.202953) "></path>
                <path d="M480.12449,12.0285199 L276.777842,12.0285199 C274.104298,12.0285199 271.936229,10.6696508 271.936229,8.99396864 C271.936229,7.31828648 274.104298,5.95941735 276.777842,5.95941735 L480.125048,5.95941735 C482.798591,5.95941735 484.966661,7.31828648 484.966661,8.99396864 C484.966103,10.6696508 482.798591,12.0285199 480.12449,12.0285199 Z" id="Shape" fill="#FF9164" transform="translate(378.451445, 8.993969) rotate(-3.000000) translate(-378.451445, -8.993969) "></path>
                <path d="M211.659363,89.0767161 L5.60356152,89.0767161 C2.89439873,89.0767161 0.697444086,87.717847 0.697444086,86.0421648 C0.697444086,84.3664827 2.89439873,83.0076135 5.60356152,83.0076135 L211.659929,83.0076135 C214.369091,83.0076135 216.566046,84.3664827 216.566046,86.0421648 C216.565481,87.717847 214.369091,89.0767161 211.659363,89.0767161 Z" id="Shape" fill="#FF9164" transform="translate(108.631745, 86.042165) rotate(-6.000000) translate(-108.631745, -86.042165) "></path>
                <path d="M412.977773,87.3318235 L212.364528,87.3318235 C209.726922,87.3318235 207.587996,85.9729544 207.587996,84.2972723 C207.587996,82.6215901 209.726922,81.262721 212.364528,81.262721 L412.978324,81.262721 C415.615929,81.262721 417.754856,82.6215901 417.754856,84.2972723 C417.754305,85.9729544 415.615929,87.3318235 412.977773,87.3318235 Z" id="Shape" fill="#FF9164" transform="translate(312.671426, 84.297272) rotate(5.000000) translate(-312.671426, -84.297272) "></path>
            </g>
            <g id="car-(1)" transform="translate(446.544298, 33.940665) rotate(-3.000000) translate(-446.544298, -33.940665) translate(389.544298, 2.940665)">
                <path d="M33,50.5 C33,56.8518578 27.8518578,62 21.5,62 C15.1481422,62 10,56.8518578 10,50.5 C10,44.1481422 15.1481422,39 21.5,39 C27.8518578,39 33,44.1483593 33,50.5" id="Shape" fill="#5B5B5B"></path>
                <path d="M26,51 C26,53.2099122 24.2099122,55 22,55 C19.7900878,55 18,53.2099122 18,51 C18,48.7900878 19.7900878,47 22,47 C24.2099122,47 26,48.7900878 26,51" id="Shape" fill="#B2B2B2"></path>
                <path d="M103,50.5 C103,56.8518578 97.8518578,62 91.5,62 C85.1481422,62 80,56.8518578 80,50.5 C80,44.1481422 85.1481422,39 91.5,39 C97.8518578,39.0002171 103,44.1483593 103,50.5" id="Shape" fill="#5B5B5B"></path>
                <path d="M96,51 C96,53.2099122 94.2099122,55 92,55 C89.7900878,55 88,53.2099122 88,51 C88,48.7900878 89.7900878,47 92,47 C94.2099122,47 96,48.7900878 96,51" id="Shape" fill="#B2B2B2"></path>
                <path d="M86.096417,16.2192779 L79.3694178,5.42879177 C77.2673685,2.05562115 73.5406171,0 69.5293994,0 L29.8477841,0 C25.8325941,0 22.1058427,2.05954243 20.0037934,5.43663432 L10.3156081,21.0078121 C8.77079492,23.488674 6.02963434,25.0001089 3.08014467,25.0001089 L2.98657313,25.0001089 C1.32280937,25.0001089 -0.00374375098,26.3078552 7.93809441e-06,27.928868 C0.00398031476,32.1769194 0.0057458155,40.0981191 0.00773200383,45.2058017 C0.00773200383,47.8615963 2.18768404,50 4.87610029,50 L9.74844096,50 C9.74844096,43.6287944 14.9811645,38.4614212 21.43738,38.4614212 C27.8935955,38.4614212 33.126319,43.6287944 33.126319,50 L79.8816337,50 C79.8816337,43.6287944 85.1143572,38.4614212 91.5705727,38.4614212 C98.0267882,38.4614212 103.259512,43.6287944 103.259512,50 L107.073876,50 C110.346673,50 113,47.380804 113,44.1498887 L113,27.9210255 C113,26.3076373 111.675212,24.9998911 110.0408,24.9998911 L102.016379,24.9998911 C95.5255151,25.0001089 89.4978748,21.6770435 86.096417,16.2192779" id="Shape" fill="#86C250"></path>
                <path d="M85.6156015,16.868196 L80.3189421,8 L28.607561,8 C27.7203122,8 27,8.74199943 27,9.65800057 L27,18.3440385 C27,19.2600396 27.7203122,20 28.607561,20 L88,20 C87.1184698,19.0463891 86.3011628,18.0161994 85.6156015,16.868196" id="Shape" fill="#E6E6E6"></path>
                <polygon id="Shape" fill="#5B5B5B" points="55 20 59 20 59 8 55 8 55 20"></polygon>
                <g id="Group" transform="translate(0.000000, 27.000000)" fill="#628D3A">
                    <path d="M66.7053333,4.00422222 L56.8968889,4.00422222 C55.814,4.00422222 54.9351111,3.12733333 54.9351111,2.04244444 C54.9351111,0.957555556 55.814,0.0806666667 56.8968889,0.0806666667 L66.7053333,0.0806666667 C67.7882222,0.0806666667 68.6671111,0.957555556 68.6671111,2.04244444 C68.6671111,3.12755556 67.7882222,4.00422222 66.7053333,4.00422222" id="Shape"></path>
                    <path d="M66.7053333,7.92777778 C65.6224444,7.92777778 64.7435556,7.05088889 64.7435556,5.966 L64.7435556,2.04266667 C64.7435556,0.957777778 65.6224444,0.0808888889 66.7053333,0.0808888889 C67.7882222,0.0808888889 68.6671111,0.957777778 68.6671111,2.04266667 L68.6671111,5.966 C68.6671111,7.05088889 67.7882222,7.92777778 66.7053333,7.92777778" id="Shape"></path>
                    <path d="M113.785778,5.966 L105.939111,5.966 C104.854222,5.966 103.977333,6.84288889 103.977333,7.92777778 C103.977333,9.01266667 104.854222,9.88955556 105.939111,9.88955556 L113.785778,9.88955556 L113.785778,5.966 Z" id="Shape"></path>
                    <path d="M7.85488889,5.966 L0.00422222222,5.966 C0.00422222222,7.22533333 0.00422222222,8.53977778 0.00622222222,9.88933333 L7.85488889,9.88933333 C8.93777778,9.88933333 9.81666667,9.01244444 9.81666667,7.92755556 C9.81666667,6.84266667 8.93755556,5.966 7.85488889,5.966" id="Shape"></path>
                </g>
            </g>
            <g id="automobile" transform="translate(151.000000, 88.000000)">
                <path d="M123.623648,21.4301358 C119.426997,18.8520649 105.890544,15.5557793 86.8944313,15.5557793 L76.8600254,3.88007099 C74.7436532,1.41754881 71.6537751,0 68.4018562,0 L38.3655246,0 C35.1741817,0 32.0883419,1.13862072 29.665304,3.2099387 L17.8242204,13.3334172 L5.19438758,15.1328559 C3.40083471,15.3883721 1.94120675,16.7014488 1.50177872,18.4545672 L0,24.4444724 L33.4215176,40 L127,40 L127,27.4374111 C126.999495,24.9806789 125.720838,22.7187937 123.623648,21.4301358 Z" id="Shape" fill="#FFB47D"></path>
                <path d="M126.999748,28.2001042 C126.999748,23.6000521 120.315696,19 89.122869,19 L2.22793291,19 C0.997483952,19 0,20.0299635 0,21.2998958 L0,35.1000521 L42.333754,42 L127,42 L127,28.2001042 L126.999748,28.2001042 Z" id="Shape" fill="#FF9164"></path>
                <path d="M126.77651,37.4991895 L22.4856237,37.4991895 L2.70726907,33.0524245 C1.51930802,32.7885707 0.320261017,33.5457164 0.0529382878,34.7609734 C-0.21211686,35.9741911 0.543995781,37.1761917 1.74279083,37.445399 L21.7597455,41.9462095 C21.9182243,41.9824097 22.0789707,42 22.2417327,42 L126.775754,42 C128.005035,42 129,40.9922569 129,39.7497222 C129.000252,38.5069326 128.005791,37.4991895 126.77651,37.4991895 Z" id="Shape" fill="#FF7D5A"></path>
                <circle id="Oval" fill="#EDEDEE" cx="107.5" cy="37.5" r="11.5"></circle>
                <path d="M107,51 C99.8312848,51 94,45.1687152 94,38 C94,30.8312848 99.8312848,25 107,25 C114.168715,25 120,30.8312848 120,38 C120,45.1687152 114.168715,51 107,51 Z M107,29.3333333 C102.220447,29.3333333 98.3333333,33.2204475 98.3333333,38 C98.3333333,42.7795525 102.220447,46.6666667 107,46.6666667 C111.779553,46.6666667 115.666667,42.779798 115.666667,38 C115.666667,33.2204475 111.779798,29.3333333 107,29.3333333 Z" id="Shape" fill="#504B5A"></path>
                <circle id="Oval" fill="#DCDBDE" cx="107.5" cy="37.5" r="4.5"></circle>
                <circle id="Oval" fill="#EDEDEE" cx="22.5" cy="37.5" r="11.5"></circle>
                <path d="M22,51 C14.8312848,51 9,45.1687152 9,38 C9,30.8312848 14.8312848,25 22,25 C29.1687152,25 35,30.8312848 35,38 C34.9997546,45.1687152 29.1684697,51 22,51 Z M22,29.3333333 C17.2204475,29.3333333 13.3333333,33.2204475 13.3333333,38 C13.3333333,42.7795525 17.2204475,46.6666667 22,46.6666667 C26.7795525,46.6666667 30.6666667,42.779798 30.6666667,38 C30.6666667,33.2204475 26.7795525,29.3333333 22,29.3333333 Z" id="Shape" fill="#504B5A"></path>
                <circle id="Oval" fill="#DCDBDE" cx="22.5" cy="37.5" r="4.5"></circle>
                <g id="Group" transform="translate(40.000000, 28.000000)" fill="#FF7D5A">
                    <path d="M49.051822,4.97111111 L2.44574011,4.97111111 C1.22010452,4.97111111 0.226522599,3.87305556 0.226522599,2.51916667 C0.226522599,1.165 1.22035593,0.0672222222 2.44574011,0.0672222222 L49.051822,0.0672222222 C50.2774576,0.0672222222 51.2710395,1.165 51.2710395,2.51916667 C51.271291,3.87361111 50.2774576,4.97111111 49.051822,4.97111111 Z" id="Shape"></path>
                    <path d="M86.7807825,4.97111111 L84.561565,4.97111111 C83.3359294,4.97111111 82.342096,3.87305556 82.342096,2.51916667 C82.342096,1.165 83.3359294,0.0672222222 84.561565,0.0672222222 L86.7807825,0.0672222222 C88.0064181,0.0672222222 89,1.165 89,2.51916667 C89,3.87361111 88.0064181,4.97111111 86.7807825,4.97111111 Z" id="Shape"></path>
                </g>
                <path d="M18,13.7141747 L29.6576114,3.30160374 C32.0431055,1.17113589 35.0811316,0 38.2230262,0 L67.7939588,0 C70.9957391,0 74.0372441,1.4577703 76.1210726,3.99087275 L86,16 L34.0653087,16 C32.1320646,16 30.2022993,15.8335086 28.2951464,15.5023385 L18,13.7141747 Z" id="Shape" fill="#FF9164"></path>
                <path d="M66.5169389,3.67902726 C65.6762545,2.61509705 64.4307682,2 63.1173554,2 L42.6832594,2 C41.5097101,2 40.3840351,2.49165471 39.5543793,3.36685296 L32.9166318,10.366853 C32.3298571,10.9856506 32,11.8248999 32,12.7000982 C32,14.5223926 33.4008901,16 35.1291307,16 L73.8916013,16 C74.8295384,16 75.3418696,14.8461974 74.7415598,14.0862473 L66.5169389,3.67902726 Z" id="Shape" fill="#625D6B"></path>
                <polygon id="Shape" fill="#504B5A" points="46.7501274 16 40 16 44.5 2 49 2"></polygon>
                <path d="M124.563631,23 L122.368484,23 C121.060411,23 120,24.1192931 120,25.5 C120,26.8807069 121.060679,28 122.368484,28 L127,28 C126.794465,26.0556814 125.936638,24.29659 124.563631,23 Z" id="Shape" fill="#EDEDEE"></path>
                <path d="M77.3064771,3.74055054 C76.7907734,3.08820753 76.2141118,2.50643809 75.5908784,2 L72.0782413,2 C71.1658237,2 70.667432,3.15349469 71.2514085,3.91368047 L79.2522528,14.3210361 C80.0700638,15.3849262 81.2816627,16 82.5590962,16 L87,16 L77.3064771,3.74055054 Z" id="Shape" fill="#625D6B"></path>
                <path d="M0,21.5 L0,24 L4.66675478,24 C5.95536591,24 7,22.8807069 7,21.5 C7,20.1192931 5.95510158,19.0000001 4.66675478,19.0000001 L2.33324522,19.0000001 C1.04436976,18.9997168 0,20.1192931 0,21.5 Z" id="Shape" fill="#FF6464"></path>
            </g>
            <g id="car-(3)" transform="translate(66.994312, 47.514522) rotate(-4.000000) translate(-66.994312, -47.514522) translate(2.994312, 15.514522)">
                <path d="M124,47.9987557 L124,35.253239 C124,30.9061857 120.695885,27.2606633 116.343514,26.8057507 L94.069553,23.3593148 L85.658442,4.97940181 C84.2707039,1.94706581 81.2268999,0 77.8734291,0 L37.0319882,0 C33.9631303,0 31.1297794,1.63325574 29.6070006,4.27986168 L14.9657246,29.7293357 L4.2759571,29.7293357 C1.91462261,29.7293357 0,31.6308605 0,33.976597 L0,48 L124,47.9987557 Z" id="Shape" fill="#4DBBEB"></path>
                <path d="M116.387677,26.8065555 L94.2414682,23.3597993 L85.8785992,4.97950507 C84.4990695,1.94710619 81.4724742,0 78.1382372,0 L73,0 C76.3342369,0 79.3608323,1.94685732 80.7403619,4.97950507 L88.7592205,22.6042504 C88.9736977,23.0758463 89.4116199,23.4080787 89.9240237,23.487715 L111.24919,26.8065555 C115.576599,27.2617264 118.861763,30.9073244 118.861763,35.254219 L118.861763,48 L124,48 L124,35.254219 C124.000249,30.9073244 120.715085,27.2614775 116.387677,26.8065555 Z" id="Shape" fill="#38A1D9"></path>
                <path d="M0,54.3701805 L0,47 L126.454744,47 C127.308247,47 128,47.7296086 128,48.6298195 L128,54.3701805 C128,55.2703914 127.308247,56 126.454744,56 L1.54525604,56 C0.691752702,56 0,55.2703914 0,54.3701805 Z" id="Shape" fill="#FEB756"></path>
                <circle id="Oval" fill="#57555C" cx="98" cy="51" r="13"></circle>
                <circle id="Oval" fill="#85828C" cx="98.5" cy="51.5" r="6.5"></circle>
                <path d="M0,41 L7.37032371,41 C8.27045554,41 9,40.3515857 9,39.5515544 L9,36.4484456 C9,35.6484143 8.27045554,35 7.37032371,35 L0,35 L0,41 Z" id="Shape" fill="#FD3A4E"></path>
                <g id="Group" transform="translate(19.000000, 6.000000)" fill="#C0E3F0">
                    <path d="M9.90818543,0.148318841 L15.2042781,0.148318841 C16.3986358,0.148318841 17.1473113,1.41149275 16.5549139,2.42681159 L8.51678146,16.2000145 C8.23996026,16.6745362 7.72456954,16.9672319 7.1661457,16.9672319 L0.0926092715,16.9672319 L9.90818543,0.148318841 Z" id="Shape"></path>
                    <path d="M68.057245,0.148318841 L63.1544901,0.148318841 C62.0479603,0.148318841 61.2952583,1.24765217 61.7157748,2.24991304 L67.4937881,16.0231159 C67.7333642,16.5944638 68.3018543,16.9674783 68.9325033,16.9674783 L75.8661192,16.9674783 L68.057245,0.148318841 Z" id="Shape"></path>
                    <path d="M58.4180795,14.8658841 L52.6400662,1.09268116 C52.4004901,0.521333333 51.832,0.148318841 51.201351,0.148318841 L28.6031788,0.148318841 C28.0450066,0.148318841 27.5296159,0.44126087 27.252543,0.915536232 L19.2144106,14.6887391 C18.6220132,15.704058 19.3706887,16.9672319 20.5650464,16.9672319 L56.9793642,16.9672319 C58.0856424,16.9674783 58.8383444,15.8681449 58.4180795,14.8658841 Z" id="Shape"></path>
                </g>
                <path d="M36,24.5450001 L36,30.3762501 C44.6248785,33.09475 50.8812102,41.18025 50.8812102,50.7325 L50.8812102,55 L77,55 L77,24.5452501 C77,23.6917501 76.3106375,23.0000001 75.4600834,23.0000001 L37.5399166,23.0000001 C36.6893625,22.9997501 36,23.6915001 36,24.5450001 Z" id="Shape" fill="#38A1D9"></path>
                <path d="M126.384716,47 L121,47 C121.892182,47 122.615284,47.7296086 122.615284,48.6298195 L122.615284,54.3701805 C122.615284,55.2703914 121.892182,56 121,56 L126.384716,56 C127.276898,56 128,55.2703914 128,54.3701805 L128,48.6298195 C128,47.7298723 127.276898,47 126.384716,47 Z" id="Shape" fill="#FA8043"></path>
                <path d="M7.3847159,35 L2,35 C2.89218248,35 3.6152841,35.6484143 3.6152841,36.4484456 L3.6152841,39.5515544 C3.6152841,40.3515857 2.89218248,41 2,41 L7.3847159,41 C8.27689838,41 9,40.3515857 9,39.5515544 L9,36.4484456 C9,35.6484143 8.27663705,35 7.3847159,35 Z" id="Shape" fill="#DE0B2B"></path>
                <path d="M123.999736,35.2029529 C123.999736,34.7944692 123.963611,34.3930162 123.896897,34 L116.629867,34 C115.72963,34 115,34.648465 115,35.4485587 L115,38.5514413 C115,39.351535 115.72963,40 116.629867,40 L124,40 L124,35.2029529 L123.999736,35.2029529 Z" id="Shape" fill="#FEB756"></path>
                <path d="M122.907121,34 L118,34 C118.060252,34.3930162 118.092879,34.7944692 118.092879,35.2029529 L118.092879,40 L123,40 L123,35.2029529 C123,34.7942348 122.967373,34.3927818 122.907121,34 Z" id="Shape" fill="#FA8043"></path>
                <g id="Group" transform="translate(64.000000, 6.000000)" fill="#A3CFE3">
                    <path d="M22.1095,0.148318841 L17.239,0.148318841 C17.1445,0.148318841 17.0535,0.15915942 16.96475,0.174681159 L24.365,16.2192319 C24.5195,16.554058 24.79,16.8157101 25.11975,16.9672319 L29.86675,16.9672319 L22.1095,0.148318841 Z" id="Shape"></path>
                    <path d="M12.53375,14.8658841 L6.79375,1.09268116 C6.5555,0.521333333 5.991,0.148318841 5.3645,0.148318841 L0.2135,0.148318841 C0.84,0.148318841 1.405,0.521333333 1.64275,1.09268116 L7.38275,14.8658841 C7.8005,15.8678986 7.0525,16.9672319 5.9535,16.9672319 L11.1045,16.9672319 C12.2035,16.9674783 12.95125,15.8681449 12.53375,14.8658841 Z" id="Shape"></path>
                </g>
                <path d="M51.4343272,56 L78,56 L78,47 L51,47 C51.2838078,48.4544709 51.4343272,49.9590414 51.4343272,51.5002637 L51.4343272,56 Z" id="Shape" fill="#FA8043"></path>
                <path d="M55.0993265,36 L50.9006735,36 C49.8507027,36 49,35.1045819 49,34 C49,32.8954181 49.8507027,32 50.9006735,32 L55.0993265,32 C56.1492973,32 57,32.8954181 57,34 C57,35.1045819 56.1492973,36 55.0993265,36 Z" id="Shape" fill="#57555C"></path>
                <path d="M98.5126421,38 C97.6521683,38 96.8116941,38.0906454 96,38.2633034 C101.692346,39.4739402 105.974716,44.7163937 105.974716,51.000127 C105.974716,57.2838602 101.692346,62.5260598 96,63.7366966 C96.8116941,63.9093546 97.6519244,64 98.5126421,64 C105.409115,64 111,58.1796502 111,51.000127 C111,43.8203498 105.409115,38 98.5126421,38 Z" id="Shape" fill="#4B494F"></path>
                <circle id="Oval" fill="#57555C" cx="30" cy="51" r="13"></circle>
                <circle id="Oval" fill="#85828C" cx="29.5" cy="51.5" r="6.5"></circle>
                <g id="Group" transform="translate(28.000000, 48.000000)" fill="#57555C">
                    <path d="M2.13210345,0.19224 C1.05774483,0.19224 0.187282759,1.0224 0.187282759,2.04648 L0.187282759,4.09464 C0.187282759,5.11872 1.05774483,5.94888 2.13210345,5.94888 C3.20646207,5.94888 4.07692414,5.11872 4.07692414,4.09464 L4.07692414,2.04648 C4.07692414,1.02264 3.20621034,0.19224 2.13210345,0.19224 Z" id="Shape"></path>
                    <path d="M70.8689034,0.19224 C69.7945448,0.19224 68.9240828,1.0224 68.9240828,2.04648 L68.9240828,4.09464 C68.9240828,5.11872 69.7945448,5.94888 70.8689034,5.94888 C71.9432621,5.94888 72.8137241,5.11872 72.8137241,4.09464 L72.8137241,2.04648 C72.8137241,1.02264 71.9432621,0.19224 70.8689034,0.19224 Z" id="Shape"></path>
                </g>
                <path d="M29.5126421,38 C28.6521683,38 27.8116941,38.0906454 27,38.2633034 C32.6923465,39.4739402 36.9747159,44.7163937 36.9747159,51.000127 C36.9747159,57.2838602 32.6923465,62.5260598 27,63.7366966 C27.8114502,63.9093546 28.6519244,64 29.5126421,64 C36.4091153,64 42,58.1796502 42,51.000127 C42,43.8203498 36.4091153,38 29.5126421,38 Z" id="Shape" fill="#4B494F"></path>
            </g>
        </g>
    </g>
</svg>